<?xml version="1.0" standalone="no"?><!DOCTYPE svg PUBLIC "-//W3C//DTD SVG 1.1//EN" "http://www.w3.org/Graphics/SVG/1.1/DTD/svg11.dtd"><svg t="1725385863835" class="icon" viewBox="0 0 1024 1024" version="1.1" xmlns="http://www.w3.org/2000/svg" p-id="1807" xmlns:xlink="http://www.w3.org/1999/xlink" width="200" height="200"><path d="M983.5817984 334.10270094V817.14116381a83.2203173 83.2203173 0 0 1-83.2203173 83.22031729H123.6385189a83.2203173 83.2203173 0 0 1-83.2203173-83.22031729V334.10270094l83.2203173 70.54308921V817.14116381h776.7229622V404.64579015l83.2203173-70.54308921zM900.3614811 123.6385189a84.24670094 84.24670094 0 0 1 29.68191317 5.43705998 82.72099555 82.72099555 0 0 1 34.84157384 25.24349667 83.63641856 83.63641856 0 0 1 12.15016618 20.11157618c3.60621397 8.54395221 5.82542222 17.80914745 6.38022429 27.54592541L983.5817984 206.85883619v27.74010539L566.00998571 590.7819008a83.2203173 83.2203173 0 0 1-103.88669554 3.30107221l-4.13327588-3.32881237L40.4182016 234.59894158v-27.74010539a82.94291683 82.94291683 0 0 1 45.68795363-74.28800398A83.02613618 83.02613618 0 0 1 123.6385189 123.6385189h776.7229622z m-12.48304697 83.22031729H136.12156587L512 527.4512384 887.87843413 206.85883619z" fill="#ffffff" p-id="1808"></path></svg>