<?xml version="1.0" standalone="no"?><!DOCTYPE svg PUBLIC "-//W3C//DTD SVG 1.1//EN" "http://www.w3.org/Graphics/SVG/1.1/DTD/svg11.dtd"><svg t="1725385858891" class="icon" viewBox="0 0 1024 1024" version="1.1" xmlns="http://www.w3.org/2000/svg" p-id="1485" xmlns:xlink="http://www.w3.org/1999/xlink" width="200" height="200"><path d="M902.7264 74.94769778a108.28003555 108.28003555 0 0 0-33.96949334 8.11918222h-0.14563556c-10.37653333 4.11420445-59.71057778 24.86727111-134.71288888 56.32455111l-268.77041779 113.19523556c-192.85788445 81.19182222-382.43896889 161.14574222-382.43896888 161.14574222l2.25735112-0.87381334s-13.07079111 4.29624889-26.72412445 13.65333334a73.91004445 73.91004445 0 0 0-21.33560888 20.64384c-6.69923555 9.8304-12.08775111 24.86727111-10.08526224 40.41386666 3.2768 26.28721778 20.31616 42.05226667 32.54954667 50.75399112 12.37902222 8.81095111 24.17550222 12.92515555 24.17550224 12.92515555h0.29127109l177.78460445 59.89262223c7.97354667 25.59544889 54.17642667 177.49333333 65.28113779 212.48227555 6.5536 20.89870222 12.92515555 33.96949333 20.89870221 43.94552889 3.85934222 5.09724445 8.37404445 9.35708445 13.79896888 12.77952a40.74154667 40.74154667 0 0 0 8.95658668 3.85934222l-1.82044445-0.43690666c0.54613333 0.14563555 0.98304 0.58254222 1.38353778 0.72817777 1.45635555 0.40049778 2.43939555 0.54613333 4.29624889 0.83740445 28.14407111 8.51968 50.75399111-8.95658667 50.75399111-8.95658667l1.27431111-1.01944889 104.96682667-95.57333333 175.92775112 134.96775111 4.00497776 1.71121778c36.66375111 16.09272889 73.80081778 7.13614222 93.4252089-8.66531556 19.77002667-15.91068445 27.45230222-36.26325333 27.45230222-36.26325333l1.27431111-3.2768 135.9507911-696.46563556c3.85934222-17.18499555 4.84238222-33.27772445 0.58254223-48.89713777a65.79086222 65.79086222 0 0 0-28.43534223-38.12010667 68.15744 68.15744 0 0 0-38.84828443-9.8304z m-3.67729778 74.63822222c-0.14563555 2.29376 0.29127111 2.03889778-0.72817779 6.44437333v0.40049778l-134.67648 689.22026667c-0.58254222 0.98304-1.56558222 3.13116445-4.25983999 5.27928889-2.83989333 2.25735111-5.09724445 3.67729778-16.93013334-1.01944889l-215.17653333-164.96867556-129.97973334 118.47452445 27.30666668-174.39857778 351.56423111-327.68c14.49073778-13.47128889 9.64835555-16.31118222 9.64835556-16.31118222 1.01944889-16.52963555-21.88174222-4.84238222-21.88174223-4.84238222l-443.31463112 274.63224888-0.14563554-0.72817778-212.48227556-71.54346666v-0.14563556l-0.54613333-0.10922666a9.8304 9.8304 0 0 0 1.09226667-0.43690667l1.16508443-0.58254222 1.12867556-0.40049778s189.72672-79.95392 382.58460445-161.14574222c96.55637333-40.66872889 193.84092445-81.62872889 268.66119111-113.23164445 74.82026667-31.42087111 130.12536889-54.46769778 133.25653333-55.7056 2.98552889-1.16508445 1.56558222-1.16508445 3.71370667-1.16508444z" fill="#ffffff" p-id="1486"></path></svg>